<?xml version="1.0" encoding="utf-8" ?><svg xmlns="http://www.w3.org/2000/svg" xmlns:xlink="http://www.w3.org/1999/xlink" width="400" height="400" viewBox="0 0 400 400"><path fill="#F9DAAB" d="M199.915 43.5285C205.216 45.433 249.789 70.4469 252.767 73.3711C253.423 75.2018 253.081 91.3978 253.081 94.7208C252.976 113.459 252.975 132.197 253.077 150.935C255.576 151.902 259.174 154.03 261.596 155.368L277.361 164.207C281.608 166.558 285.868 168.888 290.139 171.196C292.978 172.725 297.002 174.766 299.536 176.604C301.186 177.779 302.502 179.363 303.357 181.2C303.944 182.491 304.151 183.521 304.299 184.914L304.236 214.867L304.173 219.363L304.193 252.399C304.179 258.982 304.05 266.367 304.238 272.917C304.205 276.656 304.387 282.164 304.196 285.735C304.338 293.095 306.279 303.722 298.602 307.904C293.383 310.747 288.137 313.525 282.933 316.403L250.762 334.359L226.477 347.672C221.594 350.386 216.669 353.285 211.674 355.77C208.987 357.107 200.91 359.135 198.066 358.09C189.388 357.641 182.946 352.065 175.595 348.216C172.182 346.429 168.951 344.459 165.595 342.579L122.906 318.458C120.282 316.979 117.355 315.563 114.823 313.969C105.543 308.125 96.5474 307.385 96.6675 294.421C96.7887 281.333 96.3582 268.311 96.5737 255.306C96.4942 250.08 96.4841 244.853 96.5435 239.627C96.3883 237.502 96.5136 233.45 96.5139 231.206L96.4943 214.454L96.4853 194.777C96.4775 191.778 96.3106 186.253 96.6579 183.461C97.2111 181.092 97.8021 178.981 99.5575 177.201C102.488 174.23 107.247 172.398 110.877 170.428C114.68 168.366 144.77 152.696 145.584 151.325C146.144 150.382 145.725 96.8803 145.73 91.1017C145.733 87.2684 145.225 76.0124 146.428 73.1335C148.757 71.4323 155.398 68.0008 158.184 66.4618L183.75 52.4272C186.592 50.8786 189.417 49.2996 192.226 47.6906C194.474 46.3806 197.574 44.356 199.915 43.5285Z"/><path fill="#A75722" d="M200.025 269.51C212.472 269.257 214.817 266.733 225.165 260.811L243.885 250.206C260.949 240.345 278.181 230.778 295.573 221.509C297.265 220.59 303.071 215.423 303.813 215.367L304.236 214.867L304.173 219.363L304.193 252.399C304.179 258.982 304.05 266.367 304.238 272.917C304.205 276.656 304.387 282.164 304.196 285.735C304.338 293.095 306.279 303.722 298.602 307.904C293.383 310.747 288.137 313.525 282.933 316.403L250.762 334.359L226.477 347.672C221.594 350.386 216.669 353.285 211.674 355.77C208.987 357.107 200.91 359.135 198.066 358.09C198.822 357.978 199.259 358.289 200.078 357.819C200.33 355.495 200.141 350.282 200.125 347.699L200.005 328.672C198.63 328.769 198.103 328.69 196.743 328.529C197.703 328.483 198.928 328.508 199.91 328.502C200.176 318.926 199.969 308.416 199.977 298.782C199.135 298.795 198.442 298.659 197.613 298.534C198.605 298.552 198.899 298.602 199.84 298.355C200.158 296.827 200.021 290.799 200.018 288.839L200.025 269.51Z"/><path fill="#632E10" d="M304.238 272.917C304.205 276.656 304.387 282.164 304.196 285.735C304.338 293.095 306.279 303.722 298.602 307.904C293.383 310.747 288.137 313.525 282.933 316.403L250.762 334.359L226.477 347.672C221.594 350.386 216.669 353.285 211.674 355.77C208.987 357.107 200.91 359.135 198.066 358.09C198.822 357.978 199.259 358.289 200.078 357.819C200.33 355.495 200.141 350.282 200.125 347.699L200.005 328.672C204.188 328.259 208.063 328.368 211.977 326.338C222.876 320.686 233.547 314.351 244.337 308.494L280.44 288.684C285.805 285.748 291.339 282.916 296.689 279.974C298.348 279.062 301.561 275.726 302.867 274.25C303.559 273.727 303.688 273.591 304.238 272.917Z"/><path fill="#C27430" d="M200.025 269.51C212.472 269.257 214.817 266.733 225.165 260.811L243.885 250.206C260.949 240.345 278.181 230.778 295.573 221.509C297.265 220.59 303.071 215.423 303.813 215.367L304.236 214.867L304.173 219.363C303.814 221.376 303.94 226.019 303.949 228.244C303.99 233.288 304.003 238.332 303.988 243.376C301.5 246.108 298.953 248.904 295.741 250.785C288.981 254.745 281.929 258.406 275.027 262.106L242.702 279.686L220.542 291.859C213.958 295.496 211.082 298.346 203.104 298.695C202.062 298.737 201.02 298.766 199.977 298.782C199.135 298.795 198.442 298.659 197.613 298.534C198.605 298.552 198.899 298.602 199.84 298.355C200.158 296.827 200.021 290.799 200.018 288.839L200.025 269.51Z"/><path fill="#C27430" d="M96.4943 214.454C99.1222 218.524 110.041 223.685 114.408 226.092L138.153 239.333L169.245 256.725C179.93 262.7 187.206 268.834 199.804 269.474L200.025 269.51L200.018 288.839C200.021 290.799 200.158 296.827 199.84 298.355C198.899 298.602 198.605 298.552 197.613 298.534C198.442 298.659 199.135 298.795 199.977 298.782C199.969 308.416 200.176 318.926 199.91 328.502C198.928 328.508 197.703 328.483 196.743 328.529C198.103 328.69 198.63 328.769 200.005 328.672L200.125 347.699C200.141 350.282 200.33 355.495 200.078 357.819C199.259 358.289 198.822 357.978 198.066 358.09C189.388 357.641 182.946 352.065 175.595 348.216C172.182 346.429 168.951 344.459 165.595 342.579L122.906 318.458C120.282 316.979 117.355 315.563 114.823 313.969C105.543 308.125 96.5474 307.385 96.6675 294.421C96.7887 281.333 96.3582 268.311 96.5737 255.306C96.4942 250.08 96.4841 244.853 96.5435 239.627C96.3883 237.502 96.5136 233.45 96.5139 231.206L96.4943 214.454Z"/><path fill="#7C4523" d="M96.5737 255.306C97.0362 256.483 96.7735 270.716 96.8634 273.144C99.099 274.35 101.345 277.433 104.155 279.066C108.369 281.515 112.94 283.695 117.112 286.097C125.731 291.06 134.827 295.697 143.427 300.602L173.945 317.86C180.059 321.33 189.952 328.578 196.743 328.529C198.103 328.69 198.63 328.769 200.005 328.672L200.125 347.699C200.141 350.282 200.33 355.495 200.078 357.819C199.259 358.289 198.822 357.978 198.066 358.09C189.388 357.641 182.946 352.065 175.595 348.216C172.182 346.429 168.951 344.459 165.595 342.579L122.906 318.458C120.282 316.979 117.355 315.563 114.823 313.969C105.543 308.125 96.5474 307.385 96.6675 294.421C96.7887 281.333 96.3582 268.311 96.5737 255.306Z"/><path fill="#DF9E50" d="M96.4943 214.454C99.1222 218.524 110.041 223.685 114.408 226.092L138.153 239.333L169.245 256.725C179.93 262.7 187.206 268.834 199.804 269.474L200.025 269.51L200.018 288.839C200.021 290.799 200.158 296.827 199.84 298.355C198.899 298.602 198.605 298.552 197.613 298.534C188.269 298.214 181.816 293.057 173.97 288.563L149.111 274.516C133.773 265.801 117.931 257.776 102.709 248.879C100.638 247.669 99.0584 245.572 97.1182 244.143L96.8617 243.956C96.72 242.585 96.6443 241.017 96.5435 239.627C96.3883 237.502 96.5136 233.45 96.5139 231.206L96.4943 214.454Z"/><path fill="#DF9E50" d="M252.767 73.3711C253.423 75.2018 253.081 91.3978 253.081 94.7208C252.976 113.459 252.975 132.197 253.077 150.935C252.693 151.993 252.243 171.263 252.767 172.287C252.188 173.525 252.48 177.705 252.421 179.411C246.254 183.049 239.854 186.303 233.746 189.956C233.708 188.936 233.708 187.723 233.526 186.735C233.467 187.915 233.438 189.096 233.437 190.278C229.588 192.493 224.542 194.8 221.034 197.046C220.47 197.013 220.67 197.135 220.338 196.821C220.261 197.043 220.183 197.265 220.105 197.487C213.877 201.683 206.767 205.193 200.17 208.805C198.995 209.448 198.367 209.525 197.504 209.411C198.007 208.057 197.747 194.189 197.745 191.888L197.753 157.198L197.778 123.674C197.774 117.553 197.972 109.664 197.569 103.698C208.973 97.7984 220.3 91.7517 231.547 85.5593C238.493 81.7681 246.344 77.8501 252.767 73.3711Z"/><path fill="#632E10" d="M220.171 176.487C224.596 174.036 229.013 171.464 233.499 169.136L233.526 186.735C233.467 187.915 233.438 189.096 233.437 190.278C229.588 192.493 224.542 194.8 221.034 197.046C220.47 197.013 220.67 197.135 220.338 196.821C219.772 192.302 220.323 181.735 220.171 176.487Z"/><path fill="#632E10" d="M213.283 109.96L213.644 110.266C213.919 111.759 213.728 119.782 213.71 121.767L203.642 127.516C202.974 126.513 203.02 117.464 202.982 115.597C204.67 114.295 210.95 111.223 213.283 109.96Z"/><path fill="#7C4523" d="M213.431 127.424C213.743 128.372 213.58 137.745 213.565 139.36C210.855 140.915 206.063 143.834 203.374 145.04C203.027 142.042 203.127 136.541 202.994 133.239C205.443 131.488 210.575 128.962 213.431 127.424Z"/><path fill="#632E10" d="M213.242 162.217L213.613 162.567C213.91 165.216 213.715 171.304 213.701 174.204C210.166 175.836 207.021 177.613 203.587 179.339C203.171 178.197 203.08 169.979 202.943 167.871C205.735 166.142 210.349 163.538 213.242 162.217Z"/><path fill="#632E10" d="M212.78 145.193L213.172 145.222C213.793 146.137 213.619 154.85 213.656 156.728C210.587 158.185 206.9 160.359 203.877 162.035L203.389 161.871C202.722 160.4 203.013 152.651 203.03 150.578C206.22 148.92 209.58 146.937 212.78 145.193Z"/><path fill="#DF9E50" d="M304.299 184.914L304.236 214.867L303.813 215.367C303.071 215.423 297.265 220.59 295.573 221.509C278.181 230.778 260.949 240.345 243.885 250.206L225.165 260.811C214.817 266.733 212.472 269.257 200.025 269.51L199.804 269.474C200.03 269.074 200.091 243.542 200.3 240.497C210.085 240.754 211.942 238.137 219.758 233.86C231.673 227.342 243.46 220.59 255.319 213.98L285.63 197.327C292.562 193.496 299.016 191.026 304.299 184.914Z"/><path fill="#EEB562" d="M96.6579 183.461C96.8162 186.765 101.465 189.477 104.11 191C107.644 193.035 111.337 194.896 114.908 196.885L146.945 214.659L175.708 230.804C185.021 236.087 188.849 240.287 200.3 240.497C200.091 243.542 200.03 269.074 199.804 269.474C187.206 268.834 179.93 262.7 169.245 256.725L138.153 239.333L114.408 226.092C110.041 223.685 99.1222 218.524 96.4943 214.454L96.4853 194.777C96.4775 191.778 96.3106 186.253 96.6579 183.461Z"/><path fill="#7C4523" d="M165.306 171.882C168.412 173.255 174.587 176.94 178.163 178.76C178.283 185.412 178.145 192.155 178.355 198.773C184.728 201.992 191.042 206.245 197.504 209.411C198.367 209.525 198.995 209.448 200.17 208.805C206.767 205.193 213.877 201.683 220.105 197.487C220.183 197.265 220.261 197.043 220.338 196.821C220.67 197.135 220.47 197.013 221.034 197.046C224.542 194.8 229.588 192.493 233.437 190.278C233.438 189.096 233.467 187.915 233.526 186.735C233.708 187.723 233.708 188.936 233.746 189.956C239.854 186.303 246.254 183.049 252.421 179.411C252.48 177.705 252.188 173.525 252.767 172.287C255.546 173.748 261.619 177.069 263.743 179.101C263.77 180.745 263.878 182.474 263.546 184.072C261.43 186.363 235.857 200.197 231.26 202.712C221.621 207.984 208.789 215.592 199.025 220.234C198.929 220.277 198.385 220.389 198.262 220.417C196.15 219.538 192.197 217.198 190 216L169.686 204.682C159.892 199.246 145.495 191.786 135.73 185.599C134.988 185.129 135.265 181.314 135.304 180.176C137.732 178.265 143.603 174.995 146.405 173.407C146.312 175.993 146.174 178.426 146.383 181.009C152.163 183.946 159.482 188.354 165.242 191.601C165.336 185.034 165.178 178.465 165.306 171.882Z"/><path fill="#632E10" d="M199.025 220.234L198.28 219.909C197.389 218.831 197.473 217.826 198.221 216.645C198.631 215.997 199.245 215.447 199.925 215.086C205.71 212.019 211.481 208.92 217.219 205.765L252.405 186.152C254.201 185.156 262.062 180.14 263.26 179.901C263.688 181.032 263.581 182.835 263.546 184.072C261.43 186.363 235.857 200.197 231.26 202.712C221.621 207.984 208.789 215.592 199.025 220.234Z"/><path fill="#F6CB8F" d="M155.614 73.6423C157.864 71.9204 162.307 69.7385 164.896 68.3203C170.217 65.4091 175.609 62.5992 180.898 59.6279C187.081 56.1542 193.175 52.4726 199.401 49.0693C199.92 48.7851 200.564 49.3016 201.029 49.551C206.005 51.8767 242.327 71.862 242.839 73.1018C242.542 73.9714 242.38 74.1172 241.446 74.5746C241.059 74.7607 240.669 74.9406 240.276 75.1141C239.067 76.1041 231.329 80.0936 229.348 81.15C218.816 86.7669 208.591 93.0306 197.734 97.9373C193.172 95.7417 160.515 78.3828 159.13 76.1869C157.505 75.3501 156.954 74.8692 155.614 73.6423Z"/><path fill="#DF9E50" d="M155.614 73.6423C157.864 71.9204 162.307 69.7385 164.896 68.3203C170.217 65.4091 175.609 62.5992 180.898 59.6279C187.081 56.1542 193.175 52.4726 199.401 49.0693C199.92 48.7851 200.564 49.3016 201.029 49.551L200.992 49.7411C200.663 51.4897 201.145 51.5737 200.199 53.2413C198.417 54.6043 194.969 56.4914 192.9 57.6807C188.381 60.2828 183.834 62.836 179.261 65.34C172.451 69.0898 166.253 73.1064 159.13 76.1869C157.505 75.3501 156.954 74.8692 155.614 73.6423Z"/><path fill="#EEB562" d="M201.029 49.551C206.005 51.8767 242.327 71.862 242.839 73.1018C242.542 73.9714 242.38 74.1172 241.446 74.5746C241.059 74.7607 240.669 74.9406 240.276 75.1141C238.863 74.9017 202.31 54.7969 200.199 53.2413C201.145 51.5737 200.663 51.4897 200.992 49.7411L201.029 49.551Z"/><path fill="#7C4523" d="M152.945 97.544L176.069 110.405C180.152 112.655 186.25 115.757 189.937 118.328C189.764 121.26 189.802 124.725 189.764 127.699C188.442 127.302 180.211 122.592 178.598 121.695C170.056 116.93 161.489 112.212 152.897 107.54C152.868 104.202 152.815 100.881 152.945 97.544Z"/><path fill="#7C4523" d="M152.886 114.39C155.249 115.311 163.091 119.955 165.797 121.469L189.923 134.848L189.762 144.537C189.034 144.235 188.175 143.788 187.472 143.409C175.931 137.185 164.652 130.412 153.018 124.36L152.886 114.39Z"/><path fill="#7C4523" d="M153.083 131.39C154.652 131.996 161.138 135.793 163.185 136.906C172.168 141.737 181.075 146.709 189.902 151.82C189.796 154.982 189.805 158.28 189.775 161.453C186.513 159.947 181.463 156.927 178.094 155.063L153.054 141.097C152.96 138.032 153.065 134.491 153.083 131.39Z"/><path fill="#7C4523" d="M153.107 148.459C154.218 148.916 156.994 150.539 158.182 151.187C161.895 153.202 165.589 155.251 169.264 157.333C176.08 161.171 183.197 164.777 189.874 168.77C189.655 171.788 189.994 175.06 189.642 178.035C187.117 176.926 183.292 174.732 180.758 173.372C175.007 170.299 169.274 167.192 163.559 164.051C160.636 162.452 156.33 159.947 153.329 158.777C153.219 155.339 153.145 151.899 153.107 148.459Z"/></svg>