<?xml version="1.0" encoding="utf-8" ?><svg xmlns="http://www.w3.org/2000/svg" xmlns:xlink="http://www.w3.org/1999/xlink" width="1248" height="832" viewBox="0 0 1248 832"><path fill="#F9DAAA" d="M347.836 246.225C354.285 248.39 394.883 271.399 400.99 275.905C402.148 299.695 399.645 329.752 401.251 353.054L428.206 367.946C434.842 371.554 441.928 375.058 448.107 379.424C451.393 381.746 451.997 383.247 452.764 387.011C452.622 396.48 452.554 405.95 452.561 415.42C452.532 424.831 452.795 436.284 452.383 445.526C452.412 454.983 452.735 466.1 452.445 475.417C452.511 484.464 452.838 494.961 452.6 503.897C451.507 505.659 449.818 508.223 448.06 509.154C433.839 516.686 364.983 557.419 355.158 559.838C352.648 560.445 350.058 560.657 347.483 560.465C339.37 560.049 328.928 553.51 321.806 549.28C297.34 534.75 270.982 522.146 247.531 506.209C243.737 503.63 244.975 480.081 244.999 474.6L244.939 445.823L244.887 416.873L244.833 387.366C244.924 385.287 244.934 381.513 246.716 380.168C251.589 376.489 257.427 373.802 262.806 370.871C273.363 365.2 283.846 359.392 294.251 353.447C293.584 344.668 293.871 332.204 293.89 323.246C293.834 307.802 293.975 292.357 294.313 276.915C295.176 274.182 310.289 266.896 314.201 264.782C325.449 258.662 336.661 252.477 347.836 246.225Z"/><path fill="#C27430" d="M244.887 416.873C246.573 418.416 249.347 421.007 251.294 422.115C273.179 434.57 295.286 446.66 317.247 458.986C323.797 462.662 330.353 466.573 337.19 469.655C340.898 471.306 344.117 471.879 348.127 471.757L348.451 471.901C348.467 480.299 348.884 492.915 348.43 500.973L348.904 501.126C347.995 504.242 348.39 526.273 348.421 530.903L348.866 530.968C347.939 535.583 348.911 553.111 348.462 559.864L347.483 560.465C339.37 560.049 328.928 553.51 321.806 549.28C297.34 534.75 270.982 522.146 247.531 506.209C243.737 503.63 244.975 480.081 244.999 474.6L244.939 445.823L244.887 416.873Z"/><path fill="#E2A258" d="M244.887 416.873C246.573 418.416 249.347 421.007 251.294 422.115C273.179 434.57 295.286 446.66 317.247 458.986C323.797 462.662 330.353 466.573 337.19 469.655C340.898 471.306 344.117 471.879 348.127 471.757L348.451 471.901C348.467 480.299 348.884 492.915 348.43 500.973L347.532 500.976C344.587 500.973 339.85 500.643 337.209 499.172C308.821 483.364 280.388 467.557 252.006 451.723C249.424 450.283 247.015 447.907 244.939 445.823L244.887 416.873Z"/><path fill="#8B4B23" d="M244.999 474.6C250.393 481.685 271.341 491.632 280.088 496.561C299 507.22 318.144 517.805 336.957 528.688C340.302 530.588 344.652 531.156 348.421 530.903L348.866 530.968C347.939 535.583 348.911 553.111 348.462 559.864L347.483 560.465C339.37 560.049 328.928 553.51 321.806 549.28C297.34 534.75 270.982 522.146 247.531 506.209C243.737 503.63 244.975 480.081 244.999 474.6Z"/><path fill="#8B4B23" d="M452.383 445.526C452.412 454.983 452.735 466.1 452.445 475.417C452.511 484.464 452.838 494.961 452.6 503.897C451.507 505.659 449.818 508.223 448.06 509.154C433.839 516.686 364.983 557.419 355.158 559.838C352.648 560.445 350.058 560.657 347.483 560.465L348.462 559.864C348.911 553.111 347.939 535.583 348.866 530.968L348.421 530.903C348.39 526.273 347.995 504.242 348.904 501.126C352.564 501.1 356.588 501.019 359.896 499.22C386.213 484.908 412.412 470.366 438.822 456.221C444.493 453.183 448.287 450.512 452.383 445.526Z"/><path fill="#6F3919" d="M452.445 475.417C452.511 484.464 452.838 494.961 452.6 503.897C451.507 505.659 449.818 508.223 448.06 509.154C433.839 516.686 364.983 557.419 355.158 559.838C352.648 560.445 350.058 560.657 347.483 560.465L348.462 559.864C348.911 553.111 347.939 535.583 348.866 530.968C349.585 530.98 350.304 530.971 351.022 530.941C359.515 530.572 373.951 521.385 381.63 517.117L408.233 502.566C420.685 495.693 433.792 488.78 445.993 481.489C447.935 480.329 450.842 477.154 452.445 475.417Z"/><path fill="#E2A258" d="M348.586 443.052C352.29 442.914 356.022 442.946 359.358 441.111C385.421 426.766 411.329 412.121 437.45 397.877C443.217 394.733 448.67 392.254 452.764 387.011C452.622 396.48 452.554 405.95 452.561 415.42C452.532 424.831 452.795 436.284 452.383 445.526C448.287 450.512 444.493 453.183 438.822 456.221C412.412 470.366 386.213 484.908 359.896 499.22C356.588 501.019 352.564 501.1 348.904 501.126L348.43 500.973C348.884 492.915 348.467 480.299 348.451 471.901L348.127 471.757C348.798 469.69 348.488 447.308 348.586 443.052Z"/><path fill="#C27430" d="M348.451 471.901C362.385 471.552 366.692 467.149 378.434 460.52L408.961 443.326C416.953 438.78 424.976 434.29 433.031 429.858C437.811 427.224 451.465 421.026 452.561 415.42C452.532 424.831 452.795 436.284 452.383 445.526C448.287 450.512 444.493 453.183 438.822 456.221C412.412 470.366 386.213 484.908 359.896 499.22C356.588 501.019 352.564 501.1 348.904 501.126L348.43 500.973C348.884 492.915 348.467 480.299 348.451 471.901Z"/><path fill="#E2A258" d="M400.99 275.905C402.148 299.695 399.645 329.752 401.251 353.054C401.108 360.215 401.01 367.376 400.958 374.538L400.736 381.849C394.564 385.418 388.347 388.91 382.088 392.323C379.729 393.973 371.214 398.736 368.658 399.449C366.084 402.25 349.625 411.142 346.116 411.938C346.929 400.893 346.147 379.123 346.196 367.15L346.225 329.474C346.213 322.462 346.436 313.47 345.875 306.612C347.185 305.233 357.019 300.417 359.347 299.05C371.476 291.927 389.809 283.855 400.99 275.905Z"/><path fill="#6F3919" d="M368.675 379.005C372.543 376.557 377.88 373.76 381.963 371.48L382.088 392.323C379.729 393.973 371.214 398.736 368.658 399.449C368.523 392.792 368.661 385.697 368.675 379.005Z"/><path fill="#6F3919" d="M361.156 312.633L361.721 313.009C362.565 314.946 362.14 321.628 362.093 324.145L352.359 329.755C351.065 328.454 351.469 320.064 351.465 317.734L361.156 312.633Z"/><path fill="#6F3919" d="M360.611 365.032L361.712 365.3C362.434 367.739 362.109 373.71 362.07 376.536L352.625 381.449L352.158 381.271C351.239 379.3 351.492 372.687 351.472 370.119L360.611 365.032Z"/><path fill="#6F3919" d="M360.964 330.342L361.6 330.544C362.341 332.66 362.015 339.109 361.986 341.704L352.987 346.895L351.936 346.605C351.265 344.128 351.506 338.242 351.523 335.418C354.583 333.698 357.856 332.009 360.964 330.342Z"/><path fill="#6F3919" d="M361.331 347.456C362.451 348.964 362.03 356.76 362.012 359.078L352.25 364.474C351.009 363.098 351.518 355.238 351.551 352.95L361.331 347.456Z"/><path fill="#EFB562" d="M244.833 387.366C249.863 392.328 255.142 394.846 261.263 398.222C286.595 412.192 311.859 426.269 337.012 440.549C339.907 442.193 345.328 442.763 348.586 443.052C348.488 447.308 348.798 469.69 348.127 471.757C344.117 471.879 340.898 471.306 337.19 469.655C330.353 466.573 323.797 462.662 317.247 458.986C295.286 446.66 273.179 434.57 251.294 422.115C249.347 421.007 246.573 418.416 244.887 416.873L244.833 387.366Z"/><path fill="#8B4B23" d="M313.752 374.177C318.033 376.726 322.116 378.848 326.53 381.144L326.678 401.028C333.09 404.784 339.571 408.421 346.116 411.938C349.625 411.142 366.084 402.25 368.658 399.449C371.214 398.736 379.729 393.973 382.088 392.323C388.347 388.91 394.564 385.418 400.736 381.849L400.958 374.538C404.506 376.553 409.235 379.021 412.293 381.564C412.218 383.491 412.394 385.371 411.393 386.911C403.447 392.831 385.195 401.813 376.144 407.172C371.321 410.028 351.502 421.079 346.884 422.728C345.241 422.635 287.88 390.619 283.904 387.445C282.503 381.117 290.088 378.385 294.748 375.777L294.746 383.321L313.695 394.04L313.752 374.177Z"/><path fill="#6F3919" d="M412.293 381.564C412.218 383.491 412.394 385.371 411.393 386.911C403.447 392.831 385.195 401.813 376.144 407.172C371.321 410.028 351.502 421.079 346.884 422.728C346.241 421.577 346.396 421.655 346.186 420.284C346.363 419.849 346.578 419.324 346.829 418.709C364.415 407.609 396.229 392.232 412.293 381.564Z"/><path fill="#F6CB8F" d="M307.53 278.61C306.215 277.987 305.849 277.57 304.787 276.626L304.781 275.697C309.265 272.472 346.76 251.522 349.69 251.55C353.698 255.098 376.429 266.071 382.277 269.929C384.576 271.446 388.993 273.116 391.067 275.188C390.64 276.798 390.746 276.3 388.974 277.529C377.726 283.596 356.666 295.871 346.033 300.37C338.46 296.312 312.951 283.007 307.53 278.61Z"/><path fill="#E2A258" d="M307.53 278.61C306.215 277.987 305.849 277.57 304.787 276.626L304.781 275.697C309.265 272.472 346.76 251.522 349.69 251.55C349.403 252.879 349.082 254.739 348.615 255.965C339.846 260.778 315.171 275.687 307.53 278.61Z"/><path fill="#EFB562" d="M349.69 251.55C353.698 255.098 376.429 266.071 382.277 269.929C384.576 271.446 388.993 273.116 391.067 275.188C390.64 276.798 390.746 276.3 388.974 277.529C381.21 274.695 357.373 260.538 348.615 255.965C349.082 254.739 349.403 252.879 349.69 251.55Z"/><path fill="#8B4B23" d="M301.326 300.063C310.579 304.564 329.425 315.25 338.28 320.647L338.231 330.302L301.404 309.891L301.326 300.063Z"/><path fill="#8B4B23" d="M301.311 316.847C304.201 318.054 311.041 322.104 314.005 323.754L338.299 337.254L338.127 346.851C327.577 341.88 311.992 332.554 301.537 326.732L301.311 316.847Z"/><path fill="#8B4B23" d="M301.673 333.881C313.054 339.723 327.228 347.808 338.264 354.238L338.239 363.748C330.626 360.52 309.641 348.082 301.5 343.508L301.673 333.881Z"/><path fill="#8B4B23" d="M301.673 350.989C310.165 354.839 329.581 366.265 338.251 371.148L338.13 380.338C331.19 377.675 309.842 365.245 301.661 360.982L301.673 350.989Z"/><path fill="#6F3919" d="M647.007 359.188C655.57 358.398 660.894 358.708 661.105 369.166C660.863 375.837 661.499 383.897 660.935 390.405C659.759 403.98 663.611 430.182 658.44 441.947C655.583 448.624 650.096 453.825 643.277 456.32C632.439 460.383 620.029 459.49 609.522 454.77C576.088 430.575 597.789 371.255 641.725 389.952C641.87 381.952 640.735 372.139 642.265 364.445C642.829 361.604 644.688 360.537 647.007 359.188ZM630.398 442.625C642.46 439.739 642.018 434.741 642.385 423.964C642.826 411.038 642.715 401.867 626.312 403C613.655 405.765 610.842 418.193 613.41 429.61C615.437 438.623 621.206 442.722 630.398 442.625Z"/><path fill="#6F3919" d="M521.316 364.621C538.606 364.183 556.019 364.579 573.322 364.418C580.088 364.471 583.982 364.385 585.081 372.192C586.855 384.776 572.25 381.852 563.41 381.781L536.873 381.661C536.833 388.336 536.919 395.01 537.132 401.681C543.954 401.793 574.368 400.568 577.299 402.742C579.089 404.07 579.925 406.271 580.319 408.388C580.804 410.996 580.455 414.401 578.825 416.539C578.321 417.201 577.643 417.867 576.834 418.128C569.638 420.455 546.586 418.076 537.225 418.853L536.873 419.887C536.851 426.439 536.884 432.99 536.973 439.54C552.06 439.531 567.936 438.775 582.639 439.941C587.702 441.252 587.784 456.318 583.13 456.257C572.088 456.111 526.94 459.112 519.138 455.268C514.414 447.584 517.845 405.184 516.875 393.684C516.333 387.267 517.169 375.996 517.509 369.204C517.61 367.202 519.793 365.651 521.316 364.621Z"/><path fill="#E2A258" d="M977.915 386.255C997.891 383.127 1016.59 396.867 1019.58 416.869C1022.57 436.871 1008.71 455.483 988.693 458.337C968.868 461.165 950.479 447.459 947.517 427.649C944.555 407.84 958.131 389.352 977.915 386.255ZM986.089 442.173C990.377 441.085 993.863 439.577 995.986 435.433C1002.65 422.42 999.403 401.601 981.316 402.378C960.699 408.469 964.138 444.198 986.089 442.173Z"/><path fill="#E2A258" d="M861.763 387.06C881.497 382.759 900.949 395.384 905.063 415.162C909.177 434.939 896.373 454.277 876.562 458.206C857.013 462.083 837.991 449.482 833.931 429.965C829.871 410.448 842.29 391.304 861.763 387.06ZM872.722 442.191C881.75 439.869 884.76 432.981 885.047 424.186C885.457 411.6 880.857 401.641 866.696 402.466C854.191 406.122 851.962 419.624 855.045 431.038C857.354 439.589 864.106 443.06 872.722 442.191Z"/><path fill="#E2A258" d="M784.982 362.282C793.41 362.108 821.447 363.813 822.534 376.042C824.017 392.728 805.806 383.398 797.782 381.223C794.297 380.275 790.69 379.853 787.08 379.971C783.495 380.089 777.844 380.876 775.833 383.775C767.515 395.645 786.231 399.268 794.054 401.238C807.219 404.422 824.989 410.723 825.576 427.015C826.457 451.461 808.363 457.543 788.385 459.037C778.313 458.935 764.85 456.763 756.497 450.809C752.244 447.409 749.023 439.116 753.494 434.858C760.169 428.498 768.764 436.731 775.673 438.759C779.451 440.09 785.753 441.955 789.771 441.515C795.821 440.854 804.89 439.025 805.225 431.349C805.248 424.352 795.715 421.801 790.488 420.413C780.899 417.868 771.7 415.995 763.536 410.128C751.459 401.448 750.921 384.177 759.512 372.929C765.307 365.341 776.032 363.233 784.982 362.282Z"/><path fill="#6F3919" d="M679.287 387.162C681.038 387.056 685.756 386.787 687.202 387.04C701.883 389.614 687.912 427.214 696.673 437.037C701.082 441.98 704.312 441.869 710.094 442.439C712.505 441.416 716.331 439.975 717.779 437.745C724.899 430.998 716.423 393.026 723.026 389.378C743.789 377.905 740.254 402.665 740.109 408.434C740.185 416.883 740.522 426.142 739.825 434.401C737.14 466.256 679.634 467.767 675.438 435.874C673.803 423.447 675.048 408.236 674.481 395.494C674.308 391.608 676.253 389.328 679.287 387.162Z"/><path fill="#E2A258" d="M922.811 359.239C927.731 359.044 931.55 358.477 935.029 362.564C936.883 368.434 936.061 443.528 935.525 454.011C935.442 455.636 931.894 456.959 930.021 457.565C927.452 457.744 924.631 457.897 922.141 457.112C920.503 456.595 918.587 455.29 917.862 453.669C916.34 450.263 916.301 366.332 917.774 362.969C918.7 360.853 920.838 360.069 922.811 359.239Z"/></svg>